<svg width="100" height="100" viewBox="0 0 100 100" fill="none" xmlns="http://www.w3.org/2000/svg">
<g clip-path="url(#clip0_5683_179)">
<rect width="99.765" height="99.765" rx="6.19658" fill="black"/>
<path d="M42.7688 33.9258V28.9884H44.1653V32.8184H46.5211V33.9258H42.7688ZM47.0738 33.9258V28.9884H48.4704V33.9258H47.0738ZM50.9666 33.9258L48.8577 28.9884H50.3671L52.1446 33.2628H51.2558L53.0756 28.9884H54.4581L52.3421 33.9258H50.9666ZM56.0308 30.8999H58.3231V31.9438H56.0308V30.8999ZM56.1295 32.8466H58.7111V33.9258H54.7471V28.9884H58.6194V30.0676H56.1295V32.8466Z" fill="#FAFAFA"/>
<path d="M63.9363 23.9699C64.9187 24.9524 65.6981 26.1187 66.2298 27.4023C66.7615 28.686 67.0351 30.0618 67.0351 31.4512C67.0351 32.8405 66.7615 34.2163 66.2298 35.5C65.6981 36.7836 64.9187 37.9499 63.9363 38.9324L61.4301 36.4262C62.0834 35.7728 62.6017 34.9972 62.9552 34.1436C63.3088 33.29 63.4908 32.3751 63.4908 31.4512C63.4908 30.5272 63.3088 29.6123 62.9552 28.7587C62.6017 27.9051 62.0834 27.1295 61.4301 26.4761L63.9363 23.9699Z" fill="#FAFAFA"/>
<path d="M37.6809 23.9699C36.6984 24.9524 35.9191 26.1187 35.3874 27.4023C34.8557 28.686 34.5821 30.0618 34.5821 31.4512C34.5821 32.8405 34.8557 34.2163 35.3874 35.5C35.9191 36.7836 36.6984 37.9499 37.6809 38.9324L39.9253 36.688C39.2375 36.0003 38.692 35.1839 38.3198 34.2853C37.9476 33.3868 37.7561 32.4237 37.7561 31.4512C37.7561 30.4786 37.9476 29.5155 38.3198 28.617C38.692 27.7184 39.2375 26.902 39.9253 26.2143L37.6809 23.9699Z" fill="#FAFAFA"/>
<path d="M68.9225 18.985C70.5599 20.6224 71.8588 22.5663 72.7449 24.7057C73.6311 26.8451 74.0872 29.1381 74.0872 31.4537C74.0872 33.7694 73.6311 36.0624 72.7449 38.2018C71.8588 40.3412 70.5599 42.2851 68.9225 43.9225L66.4287 41.4287C67.7387 40.1188 68.7778 38.5637 69.4867 36.8522C70.1956 35.1407 70.5605 33.3063 70.5605 31.4537C70.5605 29.6012 70.1956 27.7668 69.4867 26.0553C68.7778 24.3438 67.7387 22.7887 66.4287 21.4788L68.9225 18.985Z" fill="#FAFAFA"/>
<path d="M32.3432 18.985C30.7057 20.6224 29.4069 22.5663 28.5207 24.7057C27.6345 26.8451 27.1784 29.1381 27.1784 31.4537C27.1784 33.7694 27.6345 36.0624 28.5207 38.2018C29.4069 40.3412 30.7057 42.2851 32.3432 43.9225L34.7713 41.4943C33.4528 40.1757 32.4069 38.6104 31.6933 36.8877C30.9797 35.1649 30.6124 33.3184 30.6124 31.4537C30.6124 29.589 30.9797 27.7426 31.6933 26.0198C32.4069 24.2971 33.4528 22.7317 34.7713 21.4132L32.3432 18.985Z" fill="#FAFAFA"/>
<path d="M20.3015 75L29.8752 53.312H35.9169L45.5216 75H39.1391L31.6412 56.3173H34.0579L26.56 75H20.3015ZM25.5376 70.7863L27.1177 66.2628H37.7139L39.294 70.7863H25.5376ZM47.2607 75V53.312H57.1753C59.1582 53.312 60.8622 53.6321 62.2874 54.2724C63.7333 54.9127 64.8487 55.8422 65.6336 57.0609C66.4185 58.2589 66.8109 59.6841 66.8109 61.3365C66.8109 62.9683 66.4185 64.3832 65.6336 65.5812C64.8487 66.7792 63.7333 67.7087 62.2874 68.3697C60.8622 69.01 59.1582 69.3301 57.1753 69.3301H50.6688L53.3953 66.6656V75H47.2607ZM53.3953 67.3162L50.6688 64.4968H56.8035C58.0841 64.4968 59.0342 64.2179 59.6539 63.6603C60.2942 63.1026 60.6144 62.328 60.6144 61.3365C60.6144 60.3244 60.2942 59.5395 59.6539 58.9818C59.0342 58.4241 58.0841 58.1453 56.8035 58.1453H50.6688L53.3953 55.3259V67.3162ZM69.802 75V53.312H75.9366V75H69.802Z" fill="#FAFAFA"/>
</g>
<defs>
<clipPath id="clip0_5683_179">
<rect width="99.765" height="99.765" fill="white"/>
</clipPath>
</defs>
</svg>
