<svg width="33" height="33" viewBox="0 0 33 33" fill="none" xmlns="http://www.w3.org/2000/svg">
<circle cx="16.5" cy="16.5" r="16" fill="black"/>
<path d="M14.2384 29.4992L14.9901 26.2482L13.3387 26.3875L12.7578 29.5805C12.826 30.3241 13.703 30.6025 14.2384 29.4992Z" fill="#9C7845" stroke="#9C7845" stroke-width="0.3553"/>
<path d="M24.4357 10.2813C22.4698 16.2536 21.3072 19.5139 19.1191 25.2074L12.7665 26.0859L10.4074 26.0859L9.15331 24.6417C8.58914 24.1815 8.5893 24.041 8.63546 23.4873L9.71719 9.1962C10.4506 8.56448 10.9088 8.2418 11.9497 7.79941C12.8266 7.28103 13.3033 6.79888 14.1362 5.74462C14.4528 5.05049 14.6791 4.68805 15.1949 4.1285C15.5661 3.50566 15.9862 3.27731 17.0822 3.20501C18.5759 3.3344 19.4151 3.41068 21.0178 3.81682C21.799 3.96116 22.263 4.21133 23.1353 4.87885C25.0567 6.15293 25.4102 7.29133 24.4357 10.2813Z" fill="#FF7300" stroke="#FF7300" stroke-width="0.3553"/>
<path d="M11.0309 25.8515C10.5437 25.984 10.1061 25.676 9.09375 24.5717C9.39425 25.1064 9.58426 25.4049 10.0101 25.9226C10.4601 26.2843 10.3451 26.4293 11.1933 26.5862C12.0414 26.7431 11.8974 26.5331 12.2373 26.5388C12.5771 26.5445 12.7616 26.5345 13.0608 26.4914L14.7776 26.3492C15.77 26.3144 16.3262 26.2638 17.3179 26.124C18.3302 26.0043 18.7131 25.8099 19.139 25.1879L11.0309 25.8515Z" fill="#F8F2ED" stroke="#F8F2ED" stroke-width="0.3553"/>
<path d="M17.852 5.05725C17.3881 4.56164 17.1172 4.29292 16.5984 3.85047C16.1146 3.82964 15.8911 3.91378 15.6001 4.27981C14.9222 5.20412 14.7465 5.85033 14.033 6.7052C13.3698 7.65967 12.4327 8.01537 10.7946 8.88644C10.4633 9.10082 10.4242 9.23585 10.7946 9.53625L11.7 10.4877C12.2213 10.9872 12.5362 10.9897 13.1393 10.4877C15.3508 9.21102 16.3437 8.27067 17.7707 6.31044C18.2166 5.81922 18.1885 5.54582 17.852 5.05725Z" fill="#F8F2ED" stroke="#F8F2ED" stroke-width="0.3553"/>
</svg>
