<svg width="70" height="70" viewBox="0 0 70 70" fill="none" xmlns="http://www.w3.org/2000/svg">
<path d="M66.9054 39.4737C65.1949 39.4737 63.8065 40.865 63.8065 42.5726V63.8065H6.19785V6.19785H27.4284C29.1421 6.19785 30.5273 4.80945 30.5273 3.09893C30.5273 1.3884 29.1421 0 27.4284 0H3.09893C1.38518 0 0 1.3884 0 3.09893V66.9054C0 68.6192 1.38518 70.0043 3.09893 70.0043H66.9054C68.6192 70.0043 70.0043 68.6192 70.0043 66.9054V42.5726C70.0043 40.8682 68.6192 39.4737 66.9054 39.4737Z" fill="#78401F"/>
<path d="M66.8993 0H43.9301C42.2163 0 40.8311 1.3884 40.8311 3.09893C40.8311 4.80945 42.2163 6.19785 43.9301 6.19785H59.4189L34.987 30.6298C33.7752 31.8416 33.7752 33.8 34.987 35.0115C35.5913 35.6158 36.3847 35.9195 37.1779 35.9195C37.9713 35.9195 38.7644 35.6158 39.3688 35.0115L63.8007 10.5796V26.0742C63.8007 27.7847 65.1891 29.1731 66.8996 29.1731C68.6134 29.1731 69.9986 27.7847 69.9986 26.0742V3.09917C69.9986 1.38543 68.6134 0.000247147 66.8996 0.000247147L66.8993 0Z" fill="#78401F"/>
</svg>
