<svg width="127" height="31" viewBox="0 0 127 31" fill="none" xmlns="http://www.w3.org/2000/svg">
<path d="M21.9507 8.87261C22.8094 9.73133 23.4905 10.7508 23.9553 11.8727C24.42 12.9947 24.6592 14.1972 24.6592 15.4116C24.6592 16.626 24.42 17.8286 23.9553 18.9505C23.4905 20.0725 22.8094 21.0919 21.9507 21.9507L19.989 19.989C20.5901 19.3878 21.0669 18.6742 21.3922 17.8889C21.7175 17.1035 21.8849 16.2617 21.8849 15.4116C21.8849 14.5615 21.7175 13.7198 21.3922 12.9344C21.0669 12.149 20.5901 11.4354 19.9889 10.8343L21.9507 8.87261Z" fill="black"/>
<path d="M9.18216 8.87261C8.32344 9.73133 7.64227 10.7508 7.17753 11.8727C6.7128 12.9947 6.4736 14.1972 6.4736 15.4116C6.4736 16.626 6.7128 17.8286 7.17753 18.9505C7.64227 20.0725 8.32344 21.0919 9.18216 21.9507L11.1439 19.989C10.5428 19.3878 10.0659 18.6742 9.74063 17.8889C9.41531 17.1035 9.24788 16.2617 9.24788 15.4116C9.24788 14.5615 9.41531 13.7198 9.74063 12.9344C10.0659 12.149 10.5428 11.4354 11.1439 10.8343L9.18216 8.87261Z" fill="black"/>
<circle cx="15.5655" cy="15.2608" r="2.62015" fill="black"/>
<path d="M26.311 4.51425C27.7422 5.94544 28.8775 7.64452 29.652 9.51447C30.4266 11.3844 30.8252 13.3886 30.8252 15.4126C30.8252 17.4366 30.4266 19.4408 29.652 21.3108C28.8775 23.1807 27.7422 24.8798 26.311 26.311L24.1313 24.1313C25.2763 22.9864 26.1845 21.6271 26.8041 20.1311C27.4238 18.6352 27.7427 17.0318 27.7427 15.4126C27.7427 13.7934 27.4238 12.1901 26.8041 10.6941C26.1845 9.19814 25.2763 7.83888 24.1313 6.69392L26.311 4.51425Z" fill="black"/>
<path d="M4.51714 4.51425C3.08594 5.94544 1.95066 7.64452 1.1761 9.51447C0.401542 11.3844 0.00288213 13.3886 0.002882 15.4126C0.00288188 17.4366 0.401541 19.4408 1.1761 21.3108C1.95065 23.1807 3.08594 24.8798 4.51713 26.311L6.6395 24.1886C5.48702 23.0361 4.57282 21.6679 3.9491 20.1622C3.32538 18.6564 3.00436 17.0425 3.00436 15.4126C3.00436 13.7828 3.32539 12.1689 3.9491 10.6631C4.57282 9.15729 5.48702 7.7891 6.6395 6.63662L4.51714 4.51425Z" fill="black"/>
<path d="M38.3758 15.7812V4.99241H41.4275V13.3615H46.5753V15.7812H38.3758ZM47.7829 15.7812V4.99241H50.8346V15.7812H47.7829ZM60.8977 4.99241H63.9186L59.2948 15.7812H56.2893L51.6809 4.99241H54.9792L57.9076 12.0206L60.8977 4.99241ZM67.571 13.4231H73.212V15.7812H64.5501V4.99241H73.0117V7.35055H67.571V9.16924H72.3643V11.4503H67.571V13.4231ZM79.3908 15.7812V4.99241H84.4924C88.0681 4.99241 90.5187 7.07312 90.5187 10.3868C90.5187 13.7005 88.0681 15.7812 84.4924 15.7812H79.3908ZM82.4425 13.3461H84.3691C86.2032 13.3461 87.4362 12.2518 87.4362 10.3868C87.4362 8.52191 86.2032 7.42761 84.3691 7.42761H82.4425V13.3461ZM100.05 15.7812L99.2023 13.6851H94.6401L93.7924 15.7812H90.6791L95.4416 4.99241H98.4471L103.225 15.7812H100.05ZM95.5341 11.4349H98.3083L96.9212 7.98246L95.5341 11.4349ZM105.845 15.7812V7.4122H102.531V4.99241H112.195V7.4122H108.896V15.7812H105.845ZM120.866 15.7812L120.018 13.6851H115.456L114.609 15.7812H111.495L116.258 4.99241H119.263L124.041 15.7812H120.866ZM116.35 11.4349H119.124L117.737 7.98246L116.35 11.4349Z" fill="black"/>
<path d="M40.7 26.0352V19.8516H38.2685V18.6987H44.494V19.8516H42.0625V26.0352H40.7ZM46.8789 24.8928H51.0188V26.0352H45.5165V18.6987H50.872V19.8411H46.8789V21.7486H50.4214V22.87H46.8789V24.8928ZM55.9026 26.14C53.6598 26.14 51.9829 24.5574 51.9829 22.367C51.9829 20.1765 53.6598 18.5939 55.9131 18.5939C57.1079 18.5939 58.135 19.0236 58.8162 19.8202L57.9359 20.6481C57.4014 20.0717 56.7411 19.7887 55.976 19.7887C54.4563 19.7887 53.3559 20.8577 53.3559 22.367C53.3559 23.8762 54.4563 24.9452 55.976 24.9452C56.7411 24.9452 57.4014 24.6622 57.9359 24.0753L58.8162 24.9137C58.135 25.7103 57.1079 26.14 55.9026 26.14ZM65.2782 18.6987H66.6406V26.0352H65.2782V22.891H61.4842V26.0352H60.1217V18.6987H61.4842V21.7276H65.2782V18.6987ZM73.7734 18.6987H75.1254V26.0352H74.004L69.9585 21.0674V26.0352H68.6065V18.6987H69.7279L73.7734 23.6665V18.6987ZM80.5184 26.14C78.2441 26.14 76.5672 24.5364 76.5672 22.367C76.5672 20.1975 78.2441 18.5939 80.5184 18.5939C82.7927 18.5939 84.4696 20.187 84.4696 22.367C84.4696 24.5469 82.7927 26.14 80.5184 26.14ZM80.5184 24.9452C81.9962 24.9452 83.0966 23.8657 83.0966 22.367C83.0966 20.8682 81.9962 19.7887 80.5184 19.7887C79.0406 19.7887 77.9402 20.8682 77.9402 22.367C77.9402 23.8657 79.0406 24.9452 80.5184 24.9452ZM85.9138 26.0352V18.6987H87.2763V24.8823H91.1122V26.0352H85.9138ZM95.4819 26.14C93.2076 26.14 91.5307 24.5364 91.5307 22.367C91.5307 20.1975 93.2076 18.5939 95.4819 18.5939C97.7562 18.5939 99.4331 20.187 99.4331 22.367C99.4331 24.5469 97.7562 26.14 95.4819 26.14ZM95.4819 24.9452C96.9597 24.9452 98.0601 23.8657 98.0601 22.367C98.0601 20.8682 96.9597 19.7887 95.4819 19.7887C94.0041 19.7887 92.9037 20.8682 92.9037 22.367C92.9037 23.8657 94.0041 24.9452 95.4819 24.9452ZM105.887 24.5679V22.2831H107.176V25.2072C106.411 25.8255 105.342 26.14 104.304 26.14C102.03 26.14 100.353 24.5574 100.353 22.367C100.353 20.1765 102.03 18.5939 104.325 18.5939C105.552 18.5939 106.579 19.0027 107.27 19.7887L106.411 20.6272C105.835 20.0507 105.174 19.7887 104.388 19.7887C102.827 19.7887 101.726 20.8473 101.726 22.367C101.726 23.8552 102.827 24.9452 104.378 24.9452C104.902 24.9452 105.415 24.8404 105.887 24.5679ZM108.973 26.0352V18.6987H110.336V26.0352H108.973ZM113.682 24.8928H117.822V26.0352H112.32V18.6987H117.676V19.8411H113.682V21.7486H117.225V22.87H113.682V24.8928ZM121.615 26.14C120.473 26.14 119.331 25.7836 118.723 25.2596L119.194 24.2011C119.781 24.6727 120.714 25.0081 121.615 25.0081C122.758 25.0081 123.24 24.5993 123.24 24.0543C123.24 22.4718 118.88 23.5093 118.88 20.7844C118.88 19.6001 119.823 18.5939 121.835 18.5939C122.716 18.5939 123.638 18.8245 124.277 19.2437L123.848 20.3023C123.187 19.9145 122.464 19.7258 121.825 19.7258C120.693 19.7258 120.232 20.166 120.232 20.7215C120.232 22.2831 124.581 21.2665 124.581 23.96C124.581 25.1338 123.628 26.14 121.615 26.14Z" fill="black"/>
</svg>
