<svg width="411" height="79" viewBox="0 0 411 79" fill="none" xmlns="http://www.w3.org/2000/svg">
<path d="M71.32 40V16.6C71.32 15.6133 71.56 14.7067 72.04 13.88C72.52 13.0533 73.1733 12.4 74 11.92C74.8267 11.44 75.7333 11.2 76.72 11.2H94.72C95.7067 11.2 96.6 11.44 97.4 11.92C98.2267 12.4 98.88 13.0533 99.36 13.88C99.8667 14.7067 100.12 15.6133 100.12 16.6V40H95.28V30.12H76.12V40H71.32ZM76.12 25.32H95.28V16.76C95.28 16.5467 95.2 16.3733 95.04 16.24C94.9067 16.1067 94.7467 16.04 94.56 16.04H76.84C76.6533 16.04 76.48 16.1067 76.32 16.24C76.1867 16.3733 76.12 16.5467 76.12 16.76V25.32ZM104.358 40V11.2H109.118V40H104.358ZM125.146 40V11.24H148.546C149.533 11.24 150.426 11.4933 151.226 12C152.053 12.48 152.706 13.1333 153.186 13.96C153.693 14.76 153.946 15.6533 153.946 16.64V24.56C153.946 25.52 153.693 26.4133 153.186 27.24C152.706 28.0667 152.053 28.72 151.226 29.2C150.426 29.68 149.533 29.92 148.546 29.92L129.946 29.96V40H125.146ZM130.666 25.08H148.386C148.573 25.08 148.733 25.0133 148.866 24.88C149.026 24.7467 149.106 24.5733 149.106 24.36V16.76C149.106 16.5733 149.026 16.4133 148.866 16.28C148.733 16.12 148.573 16.04 148.386 16.04H130.666C130.48 16.04 130.306 16.12 130.146 16.28C130.013 16.4133 129.946 16.5733 129.946 16.76V24.36C129.946 24.5733 130.013 24.7467 130.146 24.88C130.306 25.0133 130.48 25.08 130.666 25.08ZM162.107 40C161.12 40 160.214 39.76 159.387 39.28C158.56 38.8 157.907 38.1467 157.427 37.32C156.947 36.4933 156.707 35.5867 156.707 34.6V16.6C156.707 15.6133 156.947 14.7067 157.427 13.88C157.907 13.0533 158.56 12.4 159.387 11.92C160.214 11.44 161.12 11.2 162.107 11.2H180.107C181.094 11.2 181.987 11.44 182.787 11.92C183.614 12.4 184.267 13.0533 184.747 13.88C185.254 14.7067 185.507 15.6133 185.507 16.6V34.6C185.507 35.5867 185.254 36.4933 184.747 37.32C184.267 38.1467 183.614 38.8 182.787 39.28C181.987 39.76 181.094 40 180.107 40H162.107ZM162.227 35.16H179.947C180.134 35.16 180.294 35.0933 180.427 34.96C180.587 34.8267 180.667 34.6533 180.667 34.44V16.76C180.667 16.5467 180.587 16.3733 180.427 16.24C180.294 16.1067 180.134 16.04 179.947 16.04H162.227C162.04 16.04 161.867 16.1067 161.707 16.24C161.574 16.3733 161.507 16.5467 161.507 16.76V34.44C161.507 34.6533 161.574 34.8267 161.707 34.96C161.867 35.0933 162.04 35.16 162.227 35.16ZM189.912 40V11.24H213.312C214.299 11.24 215.192 11.4933 215.992 12C216.819 12.48 217.472 13.1333 217.952 13.96C218.459 14.76 218.712 15.6533 218.712 16.64V24.56C218.712 25.52 218.459 26.4133 217.952 27.24C217.472 28.0667 216.819 28.72 215.992 29.2C215.192 29.68 214.299 29.92 213.312 29.92L194.712 29.96V40H189.912ZM195.432 25.08H213.152C213.339 25.08 213.499 25.0133 213.632 24.88C213.792 24.7467 213.872 24.5733 213.872 24.36V16.76C213.872 16.5733 213.792 16.4133 213.632 16.28C213.499 16.12 213.339 16.04 213.152 16.04H195.432C195.245 16.04 195.072 16.12 194.912 16.28C194.779 16.4133 194.712 16.5733 194.712 16.76V24.36C194.712 24.5733 194.779 24.7467 194.912 24.88C195.072 25.0133 195.245 25.08 195.432 25.08ZM221.673 30.56V25.8H237.833V30.56H221.673ZM247.617 40C246.63 40 245.723 39.76 244.897 39.28C244.07 38.8 243.417 38.1467 242.937 37.32C242.457 36.4933 242.217 35.5867 242.217 34.6V16.6C242.217 15.6133 242.457 14.7067 242.937 13.88C243.417 13.0533 244.07 12.4 244.897 11.92C245.723 11.44 246.63 11.2 247.617 11.2H270.937V16.04H248.457C248.03 16.04 247.683 16.1733 247.417 16.44C247.15 16.68 247.017 17.0133 247.017 17.44V33.76C247.017 34.1867 247.15 34.5333 247.417 34.8C247.683 35.04 248.03 35.16 248.457 35.16H270.937V40H247.617ZM286.547 40V29.2L273.267 11.2H278.947L288.987 23.84L298.947 11.2H304.707L291.387 29.24V40H286.547ZM312.734 40C311.747 40 310.84 39.76 310.014 39.28C309.187 38.8 308.534 38.1467 308.054 37.32C307.574 36.4933 307.334 35.5867 307.334 34.6V16.6C307.334 15.6133 307.574 14.7067 308.054 13.88C308.534 13.0533 309.187 12.4 310.014 11.92C310.84 11.44 311.747 11.2 312.734 11.2H336.054V16.04H313.574C313.147 16.04 312.8 16.1733 312.534 16.44C312.267 16.68 312.134 17.0133 312.134 17.44V33.76C312.134 34.1867 312.267 34.5333 312.534 34.8C312.8 35.04 313.147 35.16 313.574 35.16H336.054V40H312.734ZM340.264 40V11.16H345.064V35.16H369.064V40H340.264ZM371.476 40V11.2H397.916V16.04H376.316V23.2H393.716V28H376.316V35.16H397.916V40H371.476ZM76.725 71.2C75.3917 71.2 74.1167 71 72.9 70.6C71.6833 70.1833 70.725 69.65 70.025 69L70.95 67.05C71.6167 67.6333 72.4667 68.1167 73.5 68.5C74.5333 68.8833 75.6083 69.075 76.725 69.075C77.7417 69.075 78.5667 68.9583 79.2 68.725C79.8333 68.4917 80.3 68.175 80.6 67.775C80.9 67.3583 81.05 66.8917 81.05 66.375C81.05 65.775 80.85 65.2917 80.45 64.925C80.0667 64.5583 79.5583 64.2667 78.925 64.05C78.3083 63.8167 77.625 63.6167 76.875 63.45C76.125 63.2833 75.3667 63.0917 74.6 62.875C73.85 62.6417 73.1583 62.35 72.525 62C71.9083 61.65 71.4083 61.1833 71.025 60.6C70.6417 60 70.45 59.2333 70.45 58.3C70.45 57.4 70.6833 56.575 71.15 55.825C71.6333 55.0583 72.3667 54.45 73.35 54C74.35 53.5333 75.6167 53.3 77.15 53.3C78.1667 53.3 79.175 53.4333 80.175 53.7C81.175 53.9667 82.0417 54.35 82.775 54.85L81.95 56.85C81.2 56.35 80.4083 55.9917 79.575 55.775C78.7417 55.5417 77.9333 55.425 77.15 55.425C76.1667 55.425 75.3583 55.55 74.725 55.8C74.0917 56.05 73.625 56.3833 73.325 56.8C73.0417 57.2167 72.9 57.6833 72.9 58.2C72.9 58.8167 73.0917 59.3083 73.475 59.675C73.875 60.0417 74.3833 60.3333 75 60.55C75.6333 60.7667 76.325 60.9667 77.075 61.15C77.825 61.3167 78.575 61.5083 79.325 61.725C80.0917 61.9417 80.7833 62.225 81.4 62.575C82.0333 62.925 82.5417 63.3917 82.925 63.975C83.3083 64.5583 83.5 65.3083 83.5 66.225C83.5 67.1083 83.2583 67.9333 82.775 68.7C82.2917 69.45 81.5417 70.0583 80.525 70.525C79.525 70.975 78.2583 71.2 76.725 71.2ZM92.3773 71.15C91.244 71.15 90.244 70.9417 89.3773 70.525C88.5273 70.1083 87.8607 69.475 87.3773 68.625C86.9107 67.7583 86.6773 66.675 86.6773 65.375V57.75H89.0773V65.1C89.0773 66.4 89.3857 67.375 90.0023 68.025C90.6357 68.675 91.519 69 92.6523 69C93.4857 69 94.2107 68.8333 94.8273 68.5C95.444 68.15 95.919 67.65 96.2523 67C96.5857 66.3333 96.7523 65.5333 96.7523 64.6V57.75H99.1523V71H96.8773V67.425L97.2523 68.375C96.819 69.2583 96.169 69.9417 95.3023 70.425C94.4357 70.9083 93.4607 71.15 92.3773 71.15ZM110.746 71.15C109.646 71.15 108.638 70.9 107.721 70.4C106.821 69.8833 106.096 69.125 105.546 68.125C105.013 67.125 104.746 65.875 104.746 64.375C104.746 62.875 105.005 61.625 105.521 60.625C106.055 59.625 106.771 58.875 107.671 58.375C108.588 57.875 109.613 57.625 110.746 57.625C112.046 57.625 113.196 57.9083 114.196 58.475C115.196 59.0417 115.988 59.8333 116.571 60.85C117.155 61.85 117.446 63.025 117.446 64.375C117.446 65.725 117.155 66.9083 116.571 67.925C115.988 68.9417 115.196 69.7333 114.196 70.3C113.196 70.8667 112.046 71.15 110.746 71.15ZM103.721 75.85V57.75H106.021V61.325L105.871 64.4L106.121 67.475V75.85H103.721ZM110.546 69.05C111.396 69.05 112.155 68.8583 112.821 68.475C113.505 68.0917 114.038 67.55 114.421 66.85C114.821 66.1333 115.021 65.3083 115.021 64.375C115.021 63.425 114.821 62.6083 114.421 61.925C114.038 61.225 113.505 60.6833 112.821 60.3C112.155 59.9167 111.396 59.725 110.546 59.725C109.713 59.725 108.955 59.9167 108.271 60.3C107.605 60.6833 107.071 61.225 106.671 61.925C106.288 62.6083 106.096 63.425 106.096 64.375C106.096 65.3083 106.288 66.1333 106.671 66.85C107.071 67.55 107.605 68.0917 108.271 68.475C108.955 68.8583 109.713 69.05 110.546 69.05ZM126.662 71.15C125.246 71.15 123.996 70.8583 122.912 70.275C121.846 69.6917 121.012 68.8917 120.412 67.875C119.829 66.8583 119.537 65.6917 119.537 64.375C119.537 63.0583 119.821 61.8917 120.387 60.875C120.971 59.8583 121.762 59.0667 122.762 58.5C123.779 57.9167 124.921 57.625 126.187 57.625C127.471 57.625 128.604 57.9083 129.587 58.475C130.571 59.0417 131.337 59.8417 131.887 60.875C132.454 61.8917 132.737 63.0833 132.737 64.45C132.737 64.55 132.729 64.6667 132.712 64.8C132.712 64.9333 132.704 65.0583 132.687 65.175H121.412V63.45H131.437L130.462 64.05C130.479 63.2 130.304 62.4417 129.937 61.775C129.571 61.1083 129.062 60.5917 128.412 60.225C127.779 59.8417 127.037 59.65 126.187 59.65C125.354 59.65 124.612 59.8417 123.962 60.225C123.312 60.5917 122.804 61.1167 122.437 61.8C122.071 62.4667 121.887 63.2333 121.887 64.1V64.5C121.887 65.3833 122.087 66.175 122.487 66.875C122.904 67.5583 123.479 68.0917 124.212 68.475C124.946 68.8583 125.787 69.05 126.737 69.05C127.521 69.05 128.229 68.9167 128.862 68.65C129.512 68.3833 130.079 67.9833 130.562 67.45L131.887 69C131.287 69.7 130.537 70.2333 129.637 70.6C128.754 70.9667 127.762 71.15 126.662 71.15ZM136.07 71V57.75H138.37V61.35L138.145 60.45C138.512 59.5333 139.128 58.8333 139.995 58.35C140.862 57.8667 141.928 57.625 143.195 57.625V59.95C143.095 59.9333 142.995 59.925 142.895 59.925C142.812 59.925 142.728 59.925 142.645 59.925C141.362 59.925 140.345 60.3083 139.595 61.075C138.845 61.8417 138.47 62.95 138.47 64.4V71H136.07ZM161.213 71.2C159.879 71.2 158.646 70.9833 157.513 70.55C156.396 70.1 155.421 69.475 154.588 68.675C153.771 67.8583 153.129 66.9083 152.663 65.825C152.196 64.7417 151.963 63.55 151.963 62.25C151.963 60.95 152.196 59.7583 152.663 58.675C153.129 57.5917 153.779 56.65 154.613 55.85C155.446 55.0333 156.421 54.4083 157.538 53.975C158.671 53.525 159.904 53.3 161.238 53.3C162.588 53.3 163.829 53.5333 164.963 54C166.113 54.45 167.088 55.125 167.888 56.025L166.263 57.6C165.596 56.9 164.846 56.3833 164.013 56.05C163.179 55.7 162.288 55.525 161.338 55.525C160.354 55.525 159.438 55.6917 158.588 56.025C157.754 56.3583 157.029 56.825 156.413 57.425C155.796 58.025 155.313 58.7417 154.963 59.575C154.629 60.3917 154.463 61.2833 154.463 62.25C154.463 63.2167 154.629 64.1167 154.963 64.95C155.313 65.7667 155.796 66.475 156.413 67.075C157.029 67.675 157.754 68.1417 158.588 68.475C159.438 68.8083 160.354 68.975 161.338 68.975C162.288 68.975 163.179 68.8083 164.013 68.475C164.846 68.125 165.596 67.5917 166.263 66.875L167.888 68.45C167.088 69.35 166.113 70.0333 164.963 70.5C163.829 70.9667 162.579 71.2 161.213 71.2ZM171.679 76C171.046 76 170.429 75.8917 169.829 75.675C169.229 75.475 168.712 75.175 168.279 74.775L169.304 72.975C169.637 73.2917 170.004 73.5333 170.404 73.7C170.804 73.8667 171.229 73.95 171.679 73.95C172.262 73.95 172.746 73.8 173.129 73.5C173.512 73.2 173.871 72.6667 174.204 71.9L175.029 70.075L175.279 69.775L180.479 57.75H182.829L176.404 72.325C176.021 73.2583 175.587 73.9917 175.104 74.525C174.637 75.0583 174.121 75.4333 173.554 75.65C172.987 75.8833 172.362 76 171.679 76ZM174.829 71.425L168.779 57.75H171.279L176.429 69.55L174.829 71.425ZM190.478 71.15C189.128 71.15 187.919 70.8583 186.853 70.275C185.803 69.6917 184.978 68.8917 184.378 67.875C183.778 66.8583 183.478 65.6917 183.478 64.375C183.478 63.0583 183.778 61.8917 184.378 60.875C184.978 59.8583 185.803 59.0667 186.853 58.5C187.919 57.9167 189.128 57.625 190.478 57.625C191.678 57.625 192.744 57.8667 193.678 58.35C194.628 58.8167 195.361 59.5167 195.878 60.45L194.053 61.625C193.619 60.975 193.086 60.5 192.453 60.2C191.836 59.8833 191.169 59.725 190.453 59.725C189.586 59.725 188.811 59.9167 188.128 60.3C187.444 60.6833 186.903 61.225 186.503 61.925C186.103 62.6083 185.903 63.425 185.903 64.375C185.903 65.325 186.103 66.15 186.503 66.85C186.903 67.55 187.444 68.0917 188.128 68.475C188.811 68.8583 189.586 69.05 190.453 69.05C191.169 69.05 191.836 68.9 192.453 68.6C193.086 68.2833 193.619 67.8 194.053 67.15L195.878 68.3C195.361 69.2167 194.628 69.925 193.678 70.425C192.744 70.9083 191.678 71.15 190.478 71.15ZM198.814 71V52.45H201.214V71H198.814ZM211.696 71.15C210.28 71.15 209.03 70.8583 207.946 70.275C206.88 69.6917 206.046 68.8917 205.446 67.875C204.863 66.8583 204.571 65.6917 204.571 64.375C204.571 63.0583 204.855 61.8917 205.421 60.875C206.005 59.8583 206.796 59.0667 207.796 58.5C208.813 57.9167 209.955 57.625 211.221 57.625C212.505 57.625 213.638 57.9083 214.621 58.475C215.605 59.0417 216.371 59.8417 216.921 60.875C217.488 61.8917 217.771 63.0833 217.771 64.45C217.771 64.55 217.763 64.6667 217.746 64.8C217.746 64.9333 217.738 65.0583 217.721 65.175H206.446V63.45H216.471L215.496 64.05C215.513 63.2 215.338 62.4417 214.971 61.775C214.605 61.1083 214.096 60.5917 213.446 60.225C212.813 59.8417 212.071 59.65 211.221 59.65C210.388 59.65 209.646 59.8417 208.996 60.225C208.346 60.5917 207.838 61.1167 207.471 61.8C207.105 62.4667 206.921 63.2333 206.921 64.1V64.5C206.921 65.3833 207.121 66.175 207.521 66.875C207.938 67.5583 208.513 68.0917 209.246 68.475C209.98 68.8583 210.821 69.05 211.771 69.05C212.555 69.05 213.263 68.9167 213.896 68.65C214.546 68.3833 215.113 67.9833 215.596 67.45L216.921 69C216.321 69.7 215.571 70.2333 214.671 70.6C213.788 70.9667 212.796 71.15 211.696 71.15ZM228.168 71V53.5H230.218L238.068 66.725H236.968L244.718 53.5H246.768L246.793 71H244.393L244.368 57.275H244.943L238.043 68.875H236.893L229.943 57.275H230.568V71H228.168ZM257.595 71.15C256.178 71.15 254.928 70.8583 253.845 70.275C252.778 69.6917 251.945 68.8917 251.345 67.875C250.762 66.8583 250.47 65.6917 250.47 64.375C250.47 63.0583 250.753 61.8917 251.32 60.875C251.903 59.8583 252.695 59.0667 253.695 58.5C254.712 57.9167 255.853 57.625 257.12 57.625C258.403 57.625 259.537 57.9083 260.52 58.475C261.503 59.0417 262.27 59.8417 262.82 60.875C263.387 61.8917 263.67 63.0833 263.67 64.45C263.67 64.55 263.662 64.6667 263.645 64.8C263.645 64.9333 263.637 65.0583 263.62 65.175H252.345V63.45H262.37L261.395 64.05C261.412 63.2 261.237 62.4417 260.87 61.775C260.503 61.1083 259.995 60.5917 259.345 60.225C258.712 59.8417 257.97 59.65 257.12 59.65C256.287 59.65 255.545 59.8417 254.895 60.225C254.245 60.5917 253.737 61.1167 253.37 61.8C253.003 62.4667 252.82 63.2333 252.82 64.1V64.5C252.82 65.3833 253.02 66.175 253.42 66.875C253.837 67.5583 254.412 68.0917 255.145 68.475C255.878 68.8583 256.72 69.05 257.67 69.05C258.453 69.05 259.162 68.9167 259.795 68.65C260.445 68.3833 261.012 67.9833 261.495 67.45L262.82 69C262.22 69.7 261.47 70.2333 260.57 70.6C259.687 70.9667 258.695 71.15 257.595 71.15ZM267.003 71V52.45H269.403V71H267.003ZM278.877 71.15C277.543 71.15 276.51 70.7917 275.777 70.075C275.043 69.3583 274.677 68.3333 274.677 67V54.85H277.077V66.9C277.077 67.6167 277.252 68.1667 277.602 68.55C277.968 68.9333 278.485 69.125 279.152 69.125C279.902 69.125 280.527 68.9167 281.027 68.5L281.777 70.225C281.41 70.5417 280.968 70.775 280.452 70.925C279.952 71.075 279.427 71.15 278.877 71.15ZM272.427 59.725V57.75H280.877V59.725H272.427ZM291.742 71V53.5H293.792L301.642 66.725H300.542L308.292 53.5H310.342L310.367 71H307.967L307.942 57.275H308.517L301.617 68.875H300.467L293.517 57.275H294.142V71H291.742ZM320.944 71.15C319.611 71.15 318.427 70.8583 317.394 70.275C316.361 69.6917 315.544 68.8917 314.944 67.875C314.344 66.8417 314.044 65.675 314.044 64.375C314.044 63.0583 314.344 61.8917 314.944 60.875C315.544 59.8583 316.361 59.0667 317.394 58.5C318.427 57.9167 319.611 57.625 320.944 57.625C322.261 57.625 323.436 57.9167 324.469 58.5C325.519 59.0667 326.336 59.8583 326.919 60.875C327.519 61.875 327.819 63.0417 327.819 64.375C327.819 65.6917 327.519 66.8583 326.919 67.875C326.336 68.8917 325.519 69.6917 324.469 70.275C323.436 70.8583 322.261 71.15 320.944 71.15ZM320.944 69.05C321.794 69.05 322.552 68.8583 323.219 68.475C323.902 68.0917 324.436 67.55 324.819 66.85C325.202 66.1333 325.394 65.3083 325.394 64.375C325.394 63.425 325.202 62.6083 324.819 61.925C324.436 61.225 323.902 60.6833 323.219 60.3C322.552 59.9167 321.794 59.725 320.944 59.725C320.094 59.725 319.336 59.9167 318.669 60.3C318.002 60.6833 317.469 61.225 317.069 61.925C316.669 62.6083 316.469 63.425 316.469 64.375C316.469 65.3083 316.669 66.1333 317.069 66.85C317.469 67.55 318.002 68.0917 318.669 68.475C319.336 68.8583 320.094 69.05 320.944 69.05ZM338.213 57.625C339.297 57.625 340.247 57.8333 341.063 58.25C341.897 58.6667 342.547 59.3 343.013 60.15C343.48 61 343.713 62.075 343.713 63.375V71H341.313V63.65C341.313 62.3667 340.997 61.4 340.363 60.75C339.747 60.1 338.872 59.775 337.738 59.775C336.888 59.775 336.147 59.9417 335.513 60.275C334.88 60.6083 334.388 61.1 334.038 61.75C333.705 62.4 333.538 63.2083 333.538 64.175V71H331.138V57.75H333.438V61.325L333.063 60.375C333.497 59.5083 334.163 58.8333 335.063 58.35C335.963 57.8667 337.013 57.625 338.213 57.625ZM348.155 71V57.75H350.555V71H348.155ZM349.355 55.2C348.888 55.2 348.497 55.05 348.18 54.75C347.88 54.45 347.73 54.0833 347.73 53.65C347.73 53.2 347.88 52.825 348.18 52.525C348.497 52.225 348.888 52.075 349.355 52.075C349.822 52.075 350.205 52.225 350.505 52.525C350.822 52.8083 350.98 53.1667 350.98 53.6C350.98 54.05 350.83 54.4333 350.53 54.75C350.23 55.05 349.838 55.2 349.355 55.2ZM359.687 71.15C358.354 71.15 357.321 70.7917 356.587 70.075C355.854 69.3583 355.487 68.3333 355.487 67V54.85H357.887V66.9C357.887 67.6167 358.062 68.1667 358.412 68.55C358.779 68.9333 359.296 69.125 359.962 69.125C360.712 69.125 361.337 68.9167 361.837 68.5L362.587 70.225C362.221 70.5417 361.779 70.775 361.262 70.925C360.762 71.075 360.237 71.15 359.687 71.15ZM353.237 59.725V57.75H361.687V59.725H353.237ZM370.724 71.15C369.391 71.15 368.208 70.8583 367.174 70.275C366.141 69.6917 365.324 68.8917 364.724 67.875C364.124 66.8417 363.824 65.675 363.824 64.375C363.824 63.0583 364.124 61.8917 364.724 60.875C365.324 59.8583 366.141 59.0667 367.174 58.5C368.208 57.9167 369.391 57.625 370.724 57.625C372.041 57.625 373.216 57.9167 374.249 58.5C375.299 59.0667 376.116 59.8583 376.699 60.875C377.299 61.875 377.599 63.0417 377.599 64.375C377.599 65.6917 377.299 66.8583 376.699 67.875C376.116 68.8917 375.299 69.6917 374.249 70.275C373.216 70.8583 372.041 71.15 370.724 71.15ZM370.724 69.05C371.574 69.05 372.333 68.8583 372.999 68.475C373.683 68.0917 374.216 67.55 374.599 66.85C374.983 66.1333 375.174 65.3083 375.174 64.375C375.174 63.425 374.983 62.6083 374.599 61.925C374.216 61.225 373.683 60.6833 372.999 60.3C372.333 59.9167 371.574 59.725 370.724 59.725C369.874 59.725 369.116 59.9167 368.449 60.3C367.783 60.6833 367.249 61.225 366.849 61.925C366.449 62.6083 366.249 63.425 366.249 64.375C366.249 65.3083 366.449 66.1333 366.849 66.85C367.249 67.55 367.783 68.0917 368.449 68.475C369.116 68.8583 369.874 69.05 370.724 69.05ZM380.919 71V57.75H383.219V61.35L382.994 60.45C383.36 59.5333 383.977 58.8333 384.844 58.35C385.71 57.8667 386.777 57.625 388.044 57.625V59.95C387.944 59.9333 387.844 59.925 387.744 59.925C387.66 59.925 387.577 59.925 387.494 59.925C386.21 59.925 385.194 60.3083 384.444 61.075C383.694 61.8417 383.319 62.95 383.319 64.4V71H380.919Z" fill="#FF7300"/>
<path d="M16.8312 76.0011L18.9469 66.851L14.2989 67.2431L12.6641 76.2299C12.856 78.3228 15.3244 79.1063 16.8312 76.0011Z" fill="#9C7845" stroke="#9C7845"/>
<path d="M45.5215 21.9159C39.9885 38.7252 36.7164 47.9012 30.5578 63.9256L12.6783 66.3984L6.03852 66.3984L2.50892 62.3336C0.921057 61.0382 0.921511 60.6429 1.05142 59.0846L4.09598 18.8618C6.16025 17.0839 7.4499 16.1757 10.3794 14.9305C12.8475 13.4715 14.1892 12.1145 16.5334 9.1473C17.4246 7.19363 18.0613 6.17353 19.5131 4.59869C20.5579 2.84567 21.7403 2.20297 24.8249 1.99948C29.0292 2.36367 31.391 2.57836 35.902 3.72145C38.1004 4.1277 39.4064 4.83181 41.8616 6.71054C47.2694 10.2965 48.2643 13.5005 45.5215 21.9159Z" fill="#FF7300" stroke="#FF7300"/>
<path d="M7.80369 65.7406C6.43236 66.1135 5.20076 65.2467 2.35156 62.1386C3.19734 63.6435 3.73211 64.4838 4.93071 65.9408C6.19723 66.9589 5.87363 67.3668 8.26076 67.8085C10.6479 68.2502 10.2424 67.659 11.199 67.6751C12.1556 67.6911 12.6749 67.6631 13.517 67.5417L18.3488 67.1414C21.1421 67.0436 22.7075 66.9011 25.4986 66.5077C28.3478 66.1708 29.4255 65.6235 30.6243 63.8729L7.80369 65.7406Z" fill="#FAECDF" stroke="#FAECDF"/>
<path d="M26.9872 7.20175C25.6817 5.80683 24.9192 5.05053 23.4589 3.80524C22.0973 3.74659 21.4683 3.98342 20.6493 5.01361C18.7412 7.61511 18.2467 9.4339 16.2387 11.8399C14.372 14.5263 11.7346 15.5274 7.12389 17.9791C6.1917 18.5825 6.08141 18.9625 7.12389 19.808L9.67215 22.486C11.1394 23.8917 12.0258 23.8989 13.7232 22.486C19.9474 18.8926 22.7422 16.246 26.7585 10.7289C28.0133 9.34633 27.9343 8.57684 26.9872 7.20175Z" fill="#FAECDF" stroke="#FAECDF"/>
</svg>
