<svg width="21" height="21" viewBox="0 0 21 21" fill="none" xmlns="http://www.w3.org/2000/svg">
<circle cx="10.5" cy="10.5" r="10" stroke="#78401F"/>
<path d="M9.276 16.064C9.276 15.74 9.378 15.47 9.582 15.254C9.798 15.038 10.062 14.93 10.374 14.93C10.71 14.93 10.974 15.038 11.166 15.254C11.37 15.47 11.472 15.74 11.472 16.064C11.472 16.376 11.37 16.64 11.166 16.856C10.974 17.072 10.71 17.18 10.374 17.18C10.062 17.18 9.798 17.072 9.582 16.856C9.378 16.64 9.276 16.376 9.276 16.064ZM6.45 6.416C6.978 5.78 7.56 5.288 8.196 4.94C8.844 4.58 9.588 4.4 10.428 4.4C11.1 4.4 11.706 4.544 12.246 4.832C12.798 5.108 13.236 5.504 13.56 6.02C13.896 6.524 14.064 7.124 14.064 7.82C14.064 8.24 13.98 8.636 13.812 9.008C13.644 9.38 13.404 9.716 13.092 10.016C12.792 10.316 12.444 10.586 12.048 10.826C11.82 10.958 11.64 11.09 11.508 11.222C11.376 11.354 11.286 11.504 11.238 11.672C11.19 11.84 11.154 12.056 11.13 12.32L11.076 13.22H9.654L9.546 12.086C9.498 11.594 9.57 11.18 9.762 10.844C9.954 10.508 10.242 10.208 10.626 9.944C10.986 9.704 11.286 9.476 11.526 9.26C11.778 9.044 11.964 8.822 12.084 8.594C12.216 8.366 12.282 8.108 12.282 7.82C12.282 7.472 12.198 7.166 12.03 6.902C11.874 6.638 11.652 6.428 11.364 6.272C11.076 6.116 10.746 6.038 10.374 6.038C9.762 6.038 9.24 6.176 8.808 6.452C8.376 6.716 7.968 7.1 7.584 7.604L6.45 6.416Z" fill="#78401F"/>
</svg>
